<svg xmlns="http://www.w3.org/2000/svg" viewBox="0 0 1080 290" font-family="-apple-system, Segoe UI, Roboto, Helvetica, Arial, sans-serif">
  <defs><marker id="a-grey" viewBox="0 0 10 10" refX="9" refY="5" markerWidth="7" markerHeight="7" orient="auto-start-reverse"><path d="M0 0 L10 5 L0 10 z" fill="#5b6b7a"/></marker><marker id="a-green" viewBox="0 0 10 10" refX="9" refY="5" markerWidth="7" markerHeight="7" orient="auto-start-reverse"><path d="M0 0 L10 5 L0 10 z" fill="#2f6f4f"/></marker><marker id="a-orange" viewBox="0 0 10 10" refX="9" refY="5" markerWidth="7" markerHeight="7" orient="auto-start-reverse"><path d="M0 0 L10 5 L0 10 z" fill="#c07a2c"/></marker><marker id="a-purple" viewBox="0 0 10 10" refX="9" refY="5" markerWidth="7" markerHeight="7" orient="auto-start-reverse"><path d="M0 0 L10 5 L0 10 z" fill="#8b72be"/></marker><marker id="a-red" viewBox="0 0 10 10" refX="9" refY="5" markerWidth="7" markerHeight="7" orient="auto-start-reverse"><path d="M0 0 L10 5 L0 10 z" fill="#c96161"/></marker><marker id="a-blue" viewBox="0 0 10 10" refX="9" refY="5" markerWidth="7" markerHeight="7" orient="auto-start-reverse"><path d="M0 0 L10 5 L0 10 z" fill="#5b85c9"/></marker></defs>
  <rect width="1080" height="290" fill="#ffffff"/>
  <rect x="20" y="30" width="150" height="64" rx="8" fill="#e4edf9" stroke="#5b85c9" stroke-width="1.4"/>
  <text x="95.0" y="57.5" font-size="13.5" fill="#1b2733" font-weight="700" text-anchor="middle">PENDING</text>
  <text x="95.0" y="78.5" font-size="12.5" fill="#4a5a6a" text-anchor="middle">queued</text>
  <path d="M170 62 L196 62" fill="none" stroke="#5b6b7a" stroke-width="1.6" marker-end="url(#a-grey)"/>
  <rect x="198" y="30" width="150" height="64" rx="8" fill="#e4edf9" stroke="#5b85c9" stroke-width="1.4"/>
  <text x="273.0" y="57.5" font-size="13.5" fill="#1b2733" font-weight="700" text-anchor="middle">LAUNCHING</text>
  <text x="273.0" y="78.5" font-size="12.5" fill="#4a5a6a" text-anchor="middle">container or pod up</text>
  <path d="M348 62 L374 62" fill="none" stroke="#5b6b7a" stroke-width="1.6" marker-end="url(#a-grey)"/>
  <rect x="376" y="30" width="150" height="64" rx="8" fill="#e4edf9" stroke="#5b85c9" stroke-width="1.4"/>
  <text x="451.0" y="57.5" font-size="13.5" fill="#1b2733" font-weight="700" text-anchor="middle">WAITING_READY</text>
  <text x="451.0" y="78.5" font-size="12.5" fill="#4a5a6a" text-anchor="middle">until it answers</text>
  <path d="M526 62 L552 62" fill="none" stroke="#5b6b7a" stroke-width="1.6" marker-end="url(#a-grey)"/>
  <rect x="554" y="30" width="150" height="64" rx="8" fill="#e4edf9" stroke="#5b85c9" stroke-width="1.4"/>
  <text x="629.0" y="57.5" font-size="13.5" fill="#1b2733" font-weight="700" text-anchor="middle">HEALTH_CHECK</text>
  <text x="629.0" y="78.5" font-size="12.5" fill="#4a5a6a" text-anchor="middle">answers correctly?</text>
  <path d="M704 62 L730 62" fill="none" stroke="#5b6b7a" stroke-width="1.6" marker-end="url(#a-grey)"/>
  <rect x="732" y="30" width="150" height="64" rx="8" fill="#e4edf9" stroke="#5b85c9" stroke-width="1.4"/>
  <text x="807.0" y="57.5" font-size="13.5" fill="#1b2733" font-weight="700" text-anchor="middle">BENCHING</text>
  <text x="807.0" y="78.5" font-size="12.5" fill="#4a5a6a" text-anchor="middle">LLMBench measures</text>
  <path d="M882 62 L908 62" fill="none" stroke="#5b6b7a" stroke-width="1.6" marker-end="url(#a-grey)"/>
  <rect x="910" y="30" width="150" height="64" rx="8" fill="#e8f6ee" stroke="#3b9a68" stroke-width="1.4"/>
  <text x="985.0" y="57.5" font-size="13.5" fill="#1b2733" font-weight="700" text-anchor="middle">SUCCEEDED</text>
  <text x="985.0" y="78.5" font-size="12.5" fill="#4a5a6a" text-anchor="middle">result recorded</text>
  <path d="M95 94 L95 140 L807 140" fill="none" stroke="#c96161" stroke-width="1.4" stroke-dasharray="5 4"/>
  <path d="M273 94 L273 140" fill="none" stroke="#c96161" stroke-width="1.4" stroke-dasharray="5 4"/>
  <path d="M451 94 L451 140" fill="none" stroke="#c96161" stroke-width="1.4" stroke-dasharray="5 4"/>
  <path d="M629 94 L629 140" fill="none" stroke="#c96161" stroke-width="1.4" stroke-dasharray="5 4"/>
  <path d="M807 94 L807 140" fill="none" stroke="#c96161" stroke-width="1.4" stroke-dasharray="5 4"/>
  <text x="820" y="144" font-size="12" fill="#c96161" text-anchor="start">from any active state</text>
  <path d="M390 140 L390 188" fill="none" stroke="#c96161" stroke-width="1.6" stroke-dasharray="5 4" marker-end="url(#a-red)"/>
  <path d="M690 140 L690 188" fill="none" stroke="#c96161" stroke-width="1.6" stroke-dasharray="5 4" marker-end="url(#a-red)"/>
  <rect x="270" y="190" width="240" height="76" rx="8" fill="#fbeaea" stroke="#c96161" stroke-width="1.4"/>
  <text x="390.0" y="214.5" font-size="13.5" fill="#1b2733" font-weight="700" text-anchor="middle">FAILED</text>
  <text x="390.0" y="235.5" font-size="12.5" fill="#8a3a3a" text-anchor="middle">with a classified reason</text>
  <text x="390.0" y="253.5" font-size="12.5" fill="#8a3a3a" text-anchor="middle">oom · crash · mount_failed · …</text>
  <rect x="570" y="190" width="240" height="76" rx="8" fill="#fdf5e1" stroke="#d1a646" stroke-width="1.4"/>
  <text x="690.0" y="223.5" font-size="13.5" fill="#1b2733" font-weight="700" text-anchor="middle">KILLED</text>
  <text x="690.0" y="244.5" font-size="12.5" fill="#7a5a1a" text-anchor="middle">window cutoff · stop · lease ended</text>
</svg>
